<?xml version="1.0" encoding="UTF-8" standalone="no"?>
<!-- Created with Inkscape (http://www.inkscape.org/) -->

<svg
   xmlns:dc="http://purl.org/dc/elements/1.1/"
   xmlns:cc="http://creativecommons.org/ns#"
   xmlns:rdf="http://www.w3.org/1999/02/22-rdf-syntax-ns#"
   xmlns:svg="http://www.w3.org/2000/svg"
   xmlns="http://www.w3.org/2000/svg"
   xmlns:sodipodi="http://sodipodi.sourceforge.net/DTD/sodipodi-0.dtd"
   xmlns:inkscape="http://www.inkscape.org/namespaces/inkscape"
   width="210mm"
   height="297mm"
   viewBox="0 0 210 297"
   version="1.1"
   id="svg8"
   inkscape:version="0.92.5 (2060ec1f9f, 2020-04-08)"
   sodipodi:docname="gmin.svg"
   inkscape:export-filename="/home/chris/Plusworx/Logos/Cog/cog.png"
   inkscape:export-xdpi="96"
   inkscape:export-ydpi="96">
  <defs
     id="defs2">
    <inkscape:path-effect
       effect="gears"
       id="path-effect4520"
       is_visible="true"
       teeth="10"
       phi="5"
       min_radius="5" />
  </defs>
  <sodipodi:namedview
     id="base"
     pagecolor="#ffffff"
     bordercolor="#666666"
     borderopacity="1.0"
     inkscape:pageopacity="0.0"
     inkscape:pageshadow="2"
     inkscape:zoom="0.7"
     inkscape:cx="-91.428567"
     inkscape:cy="537.14285"
     inkscape:document-units="mm"
     inkscape:current-layer="g4718"
     showgrid="false"
     inkscape:snap-object-midpoints="true"
     inkscape:window-width="1848"
     inkscape:window-height="1016"
     inkscape:window-x="72"
     inkscape:window-y="27"
     inkscape:window-maximized="1" />
  <metadata
     id="metadata5">
    <rdf:RDF>
      <cc:Work
         rdf:about="">
        <dc:format>image/svg+xml</dc:format>
        <dc:type
           rdf:resource="http://purl.org/dc/dcmitype/StillImage" />
        <dc:title></dc:title>
      </cc:Work>
    </rdf:RDF>
  </metadata>
  <g
     inkscape:label="Layer 1"
     inkscape:groupmode="layer"
     id="layer1">
    <g
       id="g4718"
       transform="translate(5.6696429,46.113095)">
      <g
         id="g4674">
        <ellipse
           style="opacity:1;fill:#6c6753;fill-opacity:1;stroke-width:0.21406858"
           id="path4534"
           cx="98.462799"
           cy="86.278267"
           rx="33.450893"
           ry="33.828869" />
        <path
           style="opacity:1;fill:#6c6753;fill-opacity:1;stroke-width:0.26086533"
           d="m 93.889284,43.302383 h 9.449406 l 3.40179,14.3631 H 90.109522 Z"
           id="rect4536"
           inkscape:connector-curvature="0"
           sodipodi:nodetypes="ccccc" />
        <path
           style="opacity:1;fill:#6c6753;fill-opacity:1;stroke-width:0.26086533"
           d="m 125.85986,53.572315 6.79404,6.567506 -7.53676,12.69126 -11.95751,-11.558812 z"
           id="rect4536-3"
           inkscape:connector-curvature="0"
           sodipodi:nodetypes="ccccc" />
        <path
           style="opacity:1;fill:#6c6753;fill-opacity:1;stroke-width:0.26086533"
           d="m 141.62714,82.941945 -0.0148,9.44939 -14.36839,3.37935 0.026,-16.63091 z"
           id="rect4536-3-6"
           inkscape:connector-curvature="0"
           sodipodi:nodetypes="ccccc" />
        <path
           style="opacity:1;fill:#6c6753;fill-opacity:1;stroke-width:0.26086533"
           d="m 54.796503,91.968514 0.0148,-9.44939 14.36839,-3.37935 -0.026,16.63091 z"
           id="rect4536-3-6-7"
           inkscape:connector-curvature="0"
           sodipodi:nodetypes="ccccc" />
        <path
           style="opacity:1;fill:#6c6753;fill-opacity:1;stroke-width:0.26086533"
           d="m 102.43155,129.55655 h -9.449404 l -3.40179,-14.3631 h 16.630954 z"
           id="rect4536-5"
           inkscape:connector-curvature="0"
           sodipodi:nodetypes="ccccc" />
        <path
           style="opacity:1;fill:#6c6753;fill-opacity:1;stroke-width:0.26086533"
           d="m 71.585975,120.17431 -6.79404,-6.5675 7.53676,-12.69128 11.95751,11.55884 z"
           id="rect4536-3-3"
           inkscape:connector-curvature="0"
           sodipodi:nodetypes="ccccc" />
        <path
           style="opacity:1;fill:#6c6753;fill-opacity:1;stroke-width:0.26086533"
           d="m 64.349534,59.190269 6.5675,-6.79404 12.69129,7.53676 -11.55884,11.95751 z"
           id="rect4536-3-3-5"
           inkscape:connector-curvature="0"
           sodipodi:nodetypes="ccccc" />
        <path
           style="opacity:1;fill:#6c6753;fill-opacity:1;stroke-width:0.26086533"
           d="m 131.23971,113.49803 -6.5675,6.79404 -12.69129,-7.53676 11.55884,-11.95753 z"
           id="rect4536-3-3-5-6"
           inkscape:connector-curvature="0"
           sodipodi:nodetypes="ccccc" />
        <ellipse
           style="opacity:1;fill:#ffffff;fill-opacity:1;stroke-width:0.09378944"
           id="path4528"
           cx="98.462799"
           cy="86.278267"
           rx="18.331842"
           ry="17.979776" />
      </g>
      <flowRoot
         xml:space="preserve"
         id="flowRoot839"
         style="font-style:normal;font-variant:normal;font-weight:bold;font-stretch:normal;font-size:96px;line-height:1.25;font-family:'Arial Black';-inkscape-font-specification:'Arial Black,  Bold';letter-spacing:0px;word-spacing:0px;fill:#000000;fill-opacity:1;stroke:none"
         transform="matrix(0.26458333,0,0,0.26458333,35.076189,-120.19643)"><flowRegion
           id="flowRegion841"
           style="font-style:normal;font-variant:normal;font-weight:bold;font-stretch:normal;font-size:96px;font-family:'Arial Black';-inkscape-font-specification:'Arial Black,  Bold'"><rect
             id="rect843"
             width="261.42856"
             height="217.14285"
             x="198.57143"
             y="729.66254"
             style="font-style:normal;font-variant:normal;font-weight:bold;font-stretch:normal;font-size:96px;font-family:'Arial Black';-inkscape-font-specification:'Arial Black,  Bold'" /></flowRegion><flowPara
           id="flowPara845">G</flowPara></flowRoot>      <path
         style="opacity:1;fill:#454955;fill-opacity:1;stroke-width:1.42857146"
         d="m 381.18664,534.9751 c -11.26595,-2.9081 -19.10536,-11.21506 -22.14829,-23.46924 -3.58461,-14.43561 1.14157,-29.96958 11.69955,-38.45397 9.70273,-7.79709 34.13953,-8.94179 44.32706,-2.07642 4.54643,3.06384 10.81388,11.85586 9.43469,13.23505 -0.38451,0.38451 -4.51963,1.4096 -9.18915,2.27799 -8.24336,1.53302 -8.59971,1.46924 -12.26391,-2.19496 -2.79272,-2.79272 -5.22627,-3.77386 -9.36042,-3.77386 -11.21772,0 -16.96131,9.1789 -15.54148,24.83703 0.67244,7.4158 1.44347,9.29057 5.20206,12.64887 3.44258,3.07594 5.83647,3.94267 10.88959,3.94267 8.68014,0 14.90652,-3.29721 14.90652,-7.89383 0,-3.28931 -0.49596,-3.53474 -7.14286,-3.53474 h -7.14285 v -6.42857 -6.42857 h 15.71428 15.71429 v 14.19619 14.1962 l -9.37811,4.61683 c -7.66517,3.77355 -11.38345,4.69156 -20.35714,5.026 -6.03847,0.22505 -12.95219,-0.10015 -15.36383,-0.72267 z"
         id="path866"
         inkscape:connector-curvature="0"
         transform="matrix(0.26458333,0,0,0.26458333,-5.6696429,-46.113095)" />
      <path
         style="opacity:1;fill:#454955;fill-opacity:1;stroke-width:1.42857146"
         d="m 373.40792,660.20755 c -0.44659,-1.7926 -2.55322,-10.33072 -4.68138,-18.97358 -4.39744,-17.85877 -1.2915,-14.85197 -27.98924,-27.09588 -7.76591,-3.56154 -14.74472,-6.47554 -15.50845,-6.47554 -0.76374,0 -8.4636,4.26277 -17.11081,9.47281 l -15.72219,9.47281 -11.32,-11.32 -11.31999,-11.32 2.0781,-4.93852 c 1.14296,-2.71619 5.25763,-10.61739 9.1437,-17.55822 l 7.06559,-12.61967 -4.61919,-9.52319 c -2.54056,-5.23774 -6.1258,-13.48632 -7.96721,-18.33018 l -3.34803,-8.807 -20.76869,-5.56219 -20.7687,-5.5622 v -16.98067 -16.98068 l 19.51094,-4.85662 19.51094,-4.85662 4.52058,-13.07922 c 2.48631,-7.19357 6.43499,-17.28183 8.77484,-22.41836 l 4.25426,-9.33914 -10.20184,-16.73549 -10.20184,-16.73549 5.72271,-6.78251 c 3.1475,-3.73038 8.30637,-9.28206 11.46417,-12.33705 l 5.74145,-5.55455 16.33069,9.48312 c 8.98188,5.21571 16.99623,9.48311 17.80966,9.48311 0.81343,0 6.84654,-2.44998 13.40692,-5.44441 6.56037,-2.99443 15.90062,-6.91306 20.75611,-8.70806 4.85549,-1.795 9.27433,-4.32716 9.81965,-5.62701 0.54532,-1.29986 2.71773,-9.11338 4.82759,-17.36338 l 3.83612,-15 9.20138,-0.45981 c 5.06076,-0.2529 13.07284,-0.0567 17.80462,0.43601 l 8.60322,0.89582 3.48436,16.45197 c 1.91642,9.04858 4.1521,16.87393 4.96822,17.38966 0.8161,0.51572 5.01954,2.12348 9.34097,3.5728 4.32143,1.44931 14.44197,5.84989 22.49008,9.77907 l 14.63293,7.14396 14.36209,-8.67617 c 7.89914,-4.77189 14.8294,-8.67616 15.40057,-8.67616 2.36058,0 23.4663,22.73333 22.76346,24.5189 -0.41345,1.05032 -4.62255,8.55385 -9.35358,16.67451 l -8.60187,14.76483 3.2452,7.37802 c 1.78485,4.05791 5.37459,13.89706 7.9772,21.86477 l 4.73202,14.48675 18.67594,4.83312 18.67596,4.8331 0.392,17.10871 0.39198,17.10872 -17.53484,3.91892 c -9.64417,2.1554 -19.03153,5.04826 -20.86079,6.42858 -1.83208,1.38242 -5.73761,8.28444 -8.69535,15.36678 -2.95319,7.07143 -6.57377,15.30152 -8.04576,18.28909 l -2.67634,5.43195 4.64625,8.13948 c 2.55543,4.47671 6.34068,11.4747 8.41163,15.55107 l 3.7654,7.41157 -9.79667,10.94606 c -5.38817,6.02032 -10.5942,11.2521 -11.56896,11.62614 -0.97477,0.37406 -8.70068,-3.31912 -17.1687,-8.20703 -14.64212,-8.45174 -15.61001,-8.79784 -19.7567,-7.0645 -2.39817,1.00246 -12.1682,4.79183 -21.71117,8.42083 l -17.35088,6.5982 -4.82599,18.57143 -4.82597,18.57143 -16.7132,0.40214 c -16.36394,0.39374 -16.73017,0.33404 -17.52517,-2.85714 z M 411.38358,566.812 c 20.24064,-5.94523 36.23044,-19.17575 45.25672,-37.44701 L 462,518.51572 v -18.64087 c 0,-18.31167 -0.0862,-18.81748 -4.87922,-28.64088 -8.8833,-18.2064 -27.71088,-33.22906 -47.30336,-37.7437 -10.88854,-2.50902 -27.65307,-1.86684 -37.50534,1.43667 -11.48885,3.85226 -17.03931,7.296 -27.07361,16.79763 -16.50238,15.62635 -21.75637,28.78515 -20.84001,52.19449 0.50687,12.94844 1.07683,15.50173 5.45964,24.45777 5.86731,11.98954 21.50047,28.33054 31.98038,33.4284 15.17027,7.37943 34.7359,9.35664 49.5451,5.00677 z"
         id="path868"
         inkscape:connector-curvature="0"
         transform="matrix(0.26458333,0,0,0.26458333,-5.6696429,-46.113095)" />
      <path
         style="opacity:1;fill:#454955;fill-opacity:1;stroke-width:1.42857146"
         d="m 373.40792,660.20755 c -0.44659,-1.7926 -2.55322,-10.33072 -4.68138,-18.97358 -4.39744,-17.85877 -1.2915,-14.85197 -27.98924,-27.09588 -7.76591,-3.56154 -14.74472,-6.47554 -15.50845,-6.47554 -0.76374,0 -8.4636,4.26277 -17.11081,9.47281 l -15.72219,9.47281 -11.32,-11.32 -11.31999,-11.32 2.0781,-4.93852 c 1.14296,-2.71619 5.25763,-10.61739 9.1437,-17.55822 l 7.06559,-12.61967 -4.61919,-9.52319 c -2.54056,-5.23774 -6.1258,-13.48632 -7.96721,-18.33018 l -3.34803,-8.807 -20.76869,-5.56219 -20.7687,-5.5622 v -16.98067 -16.98068 l 19.51094,-4.85662 19.51094,-4.85662 4.52058,-13.07922 c 2.48631,-7.19357 6.43499,-17.28183 8.77484,-22.41836 l 4.25426,-9.33914 -10.20184,-16.73549 -10.20184,-16.73549 5.72271,-6.78251 c 3.1475,-3.73038 8.30637,-9.28206 11.46417,-12.33705 l 5.74145,-5.55455 16.33069,9.48312 c 8.98188,5.21571 16.99623,9.48311 17.80966,9.48311 0.81343,0 6.84654,-2.44998 13.40692,-5.44441 6.56037,-2.99443 15.90062,-6.91306 20.75611,-8.70806 4.85549,-1.795 9.27433,-4.32716 9.81965,-5.62701 0.54532,-1.29986 2.71773,-9.11338 4.82759,-17.36338 l 3.83612,-15 9.20138,-0.45981 c 5.06076,-0.2529 13.07284,-0.0567 17.80462,0.43601 l 8.60322,0.89582 3.48436,16.45197 c 1.91642,9.04858 4.1521,16.87393 4.96822,17.38966 0.8161,0.51572 5.01954,2.12348 9.34097,3.5728 4.32143,1.44931 14.44197,5.84989 22.49008,9.77907 l 14.63293,7.14396 14.36209,-8.67617 c 7.89914,-4.77189 14.8294,-8.67616 15.40057,-8.67616 2.36058,0 23.4663,22.73333 22.76346,24.5189 -0.41345,1.05032 -4.62255,8.55385 -9.35358,16.67451 l -8.60187,14.76483 3.2452,7.37802 c 1.78485,4.05791 5.37459,13.89706 7.9772,21.86477 l 4.73202,14.48675 18.67594,4.83312 18.67596,4.8331 0.392,17.10871 0.39198,17.10872 -17.53484,3.91892 c -9.64417,2.1554 -19.03153,5.04826 -20.86079,6.42858 -1.83208,1.38242 -5.73761,8.28444 -8.69535,15.36678 -2.95319,7.07143 -6.57377,15.30152 -8.04576,18.28909 l -2.67634,5.43195 4.64625,8.13948 c 2.55543,4.47671 6.34068,11.4747 8.41163,15.55107 l 3.7654,7.41157 -9.79667,10.94606 c -5.38817,6.02032 -10.5942,11.2521 -11.56896,11.62614 -0.97477,0.37406 -8.70068,-3.31912 -17.1687,-8.20703 -14.64212,-8.45174 -15.61001,-8.79784 -19.7567,-7.0645 -2.39817,1.00246 -12.1682,4.79183 -21.71117,8.42083 l -17.35088,6.5982 -4.82599,18.57143 -4.82597,18.57143 -16.7132,0.40214 c -16.36394,0.39374 -16.73017,0.33404 -17.52517,-2.85714 z M 411.38358,566.812 c 20.24064,-5.94523 36.23044,-19.17575 45.25672,-37.44701 L 462,518.51572 v -18.64087 c 0,-18.31167 -0.0862,-18.81748 -4.87922,-28.64088 -8.8833,-18.2064 -27.71088,-33.22906 -47.30336,-37.7437 -10.88854,-2.50902 -27.65307,-1.86684 -37.50534,1.43667 -11.48885,3.85226 -17.03931,7.296 -27.07361,16.79763 -16.50238,15.62635 -21.75637,28.78515 -20.84001,52.19449 0.50687,12.94844 1.07683,15.50173 5.45964,24.45777 5.86731,11.98954 21.50047,28.33054 31.98038,33.4284 15.17027,7.37943 34.7359,9.35664 49.5451,5.00677 z"
         id="path870"
         inkscape:connector-curvature="0"
         transform="matrix(0.26458333,0,0,0.26458333,-5.6696429,-46.113095)" />
      <path
         style="opacity:1;fill:#454955;fill-opacity:1;stroke-width:1.42857146"
         d="m 376.77262,532.88369 c -15.29898,-8.44989 -21.55223,-24.88276 -16.31898,-42.88452 2.75616,-9.48085 10.84494,-18.62776 17.82948,-20.16182 2.43714,-0.53529 4.43073,-1.40431 4.4302,-1.93117 -5.4e-4,-0.52686 5.94589,-0.6017 13.21428,-0.16632 13.86729,0.83066 21.21026,3.41308 23.87784,8.3975 0.80387,1.50203 2.45698,3.72638 3.67359,4.94299 1.99699,1.99698 1.8243,2.30477 -1.77636,3.16605 -2.19361,0.52471 -4.63085,1.3236 -5.41609,1.77531 -2.4958,1.43568 -9.83459,0.0163 -13.55269,-2.62129 -5.35695,-3.80011 -16.645,-3.11722 -20.15659,1.21941 -3.53508,4.36564 -6.04833,13.99592 -5.06803,19.41968 1.71016,9.46183 2.32736,10.88947 6.19395,14.32711 3.33098,2.96145 5.31911,3.52449 11.72571,3.32072 14.26226,-0.45364 20.60943,-11.16765 6.61591,-11.16765 h -6.47341 v -6.42857 -6.42857 h 15 15 v 15.23809 c 0,8.38095 -0.39972,14.83837 -0.88828,14.34982 -0.48855,-0.48855 -4.18498,0.81587 -8.21428,2.89872 -10.10913,5.22566 -32.40511,6.76154 -39.69625,2.73451 z"
         id="path872"
         inkscape:connector-curvature="0"
         transform="matrix(0.26458333,0,0,0.26458333,-5.6696429,-46.113095)" />
      <path
         style="opacity:1;fill:#454955;fill-opacity:1;stroke-width:1.42857146"
         d="m 373.40792,660.20755 c -0.44659,-1.7926 -2.55322,-10.33072 -4.68138,-18.97358 -4.39744,-17.85877 -1.2915,-14.85197 -27.98924,-27.09588 -7.76591,-3.56154 -14.74472,-6.47554 -15.50845,-6.47554 -0.76374,0 -8.4636,4.26277 -17.11081,9.47281 l -15.72219,9.47281 -11.32,-11.32 -11.31999,-11.32 2.0781,-4.93852 c 1.14296,-2.71619 5.25763,-10.61739 9.1437,-17.55822 l 7.06559,-12.61967 -4.61919,-9.52319 c -2.54056,-5.23774 -6.1258,-13.48632 -7.96721,-18.33018 l -3.34803,-8.807 -20.76869,-5.56219 -20.7687,-5.5622 v -16.98067 -16.98068 l 19.51094,-4.85662 19.51094,-4.85662 4.52058,-13.07922 c 2.48631,-7.19357 6.43499,-17.28183 8.77484,-22.41836 l 4.25426,-9.33914 -10.20184,-16.73549 -10.20184,-16.73549 5.72271,-6.78251 c 3.1475,-3.73038 8.30637,-9.28206 11.46417,-12.33705 l 5.74145,-5.55455 16.33069,9.48312 c 8.98188,5.21571 16.99623,9.48311 17.80966,9.48311 0.81343,0 6.84654,-2.44998 13.40692,-5.44441 6.56037,-2.99443 15.90062,-6.91306 20.75611,-8.70806 4.85549,-1.795 9.27433,-4.32716 9.81965,-5.62701 0.54532,-1.29986 2.71773,-9.11338 4.82759,-17.36338 l 3.83612,-15 9.20138,-0.45981 c 5.06076,-0.2529 13.07284,-0.0567 17.80462,0.43601 l 8.60322,0.89582 3.48436,16.45197 c 1.91642,9.04858 4.1521,16.87393 4.96822,17.38966 0.8161,0.51572 5.01954,2.12348 9.34097,3.5728 4.32143,1.44931 14.44197,5.84989 22.49008,9.77907 l 14.63293,7.14396 14.36209,-8.67617 c 7.89914,-4.77189 14.8294,-8.67616 15.40057,-8.67616 2.36058,0 23.4663,22.73333 22.76346,24.5189 -0.41345,1.05032 -4.62255,8.55385 -9.35358,16.67451 l -8.60187,14.76483 3.2452,7.37802 c 1.78485,4.05791 5.37459,13.89706 7.9772,21.86477 l 4.73202,14.48675 18.67594,4.83312 18.67596,4.8331 0.392,17.10871 0.39198,17.10872 -17.53484,3.91892 c -9.64417,2.1554 -19.03153,5.04826 -20.86079,6.42858 -1.83208,1.38242 -5.73761,8.28444 -8.69535,15.36678 -2.95319,7.07143 -6.57377,15.30152 -8.04576,18.28909 l -2.67634,5.43195 4.64625,8.13948 c 2.55543,4.47671 6.34068,11.4747 8.41163,15.55107 l 3.7654,7.41157 -9.79667,10.94606 c -5.38817,6.02032 -10.5942,11.2521 -11.56896,11.62614 -0.97477,0.37406 -8.70068,-3.31912 -17.1687,-8.20703 -14.64212,-8.45174 -15.61001,-8.79784 -19.7567,-7.0645 -2.39817,1.00246 -12.1682,4.79183 -21.71117,8.42083 l -17.35088,6.5982 -4.82599,18.57143 -4.82597,18.57143 -16.7132,0.40214 c -16.36394,0.39374 -16.73017,0.33404 -17.52517,-2.85714 z M 411.38358,566.812 c 20.24064,-5.94523 36.23044,-19.17575 45.25672,-37.44701 L 462,518.51572 v -18.64087 c 0,-18.31167 -0.0862,-18.81748 -4.87922,-28.64088 -8.8833,-18.2064 -27.71088,-33.22906 -47.30336,-37.7437 -10.88854,-2.50902 -27.65307,-1.86684 -37.50534,1.43667 -11.48885,3.85226 -17.03931,7.296 -27.07361,16.79763 -16.50238,15.62635 -21.75637,28.78515 -20.84001,52.19449 0.50687,12.94844 1.07683,15.50173 5.45964,24.45777 5.86731,11.98954 21.50047,28.33054 31.98038,33.4284 15.17027,7.37943 34.7359,9.35664 49.5451,5.00677 z"
         id="path874"
         inkscape:connector-curvature="0"
         transform="matrix(0.26458333,0,0,0.26458333,-5.6696429,-46.113095)" />
      <path
         style="opacity:1;fill:#454955;fill-opacity:1;stroke-width:1.42857146"
         d="m 373.40792,660.20755 c -0.44659,-1.7926 -2.55322,-10.33072 -4.68138,-18.97358 -4.39744,-17.85877 -1.2915,-14.85197 -27.98924,-27.09588 -7.76591,-3.56154 -14.74472,-6.47554 -15.50845,-6.47554 -0.76374,0 -8.4636,4.26277 -17.11081,9.47281 l -15.72219,9.47281 -11.32,-11.32 -11.31999,-11.32 2.0781,-4.93852 c 1.14296,-2.71619 5.25763,-10.61739 9.1437,-17.55822 l 7.06559,-12.61967 -4.61919,-9.52319 c -2.54056,-5.23774 -6.1258,-13.48632 -7.96721,-18.33018 l -3.34803,-8.807 -20.76869,-5.56219 -20.7687,-5.5622 v -16.98067 -16.98068 l 19.51094,-4.85662 19.51094,-4.85662 4.52058,-13.07922 c 2.48631,-7.19357 6.43499,-17.28183 8.77484,-22.41836 l 4.25426,-9.33914 -10.20184,-16.73549 -10.20184,-16.73549 5.72271,-6.78251 c 3.1475,-3.73038 8.30637,-9.28206 11.46417,-12.33705 l 5.74145,-5.55455 16.33069,9.48312 c 8.98188,5.21571 16.99623,9.48311 17.80966,9.48311 0.81343,0 6.84654,-2.44998 13.40692,-5.44441 6.56037,-2.99443 15.90062,-6.91306 20.75611,-8.70806 4.85549,-1.795 9.27433,-4.32716 9.81965,-5.62701 0.54532,-1.29986 2.71773,-9.11338 4.82759,-17.36338 l 3.83612,-15 9.20138,-0.45981 c 5.06076,-0.2529 13.07284,-0.0567 17.80462,0.43601 l 8.60322,0.89582 3.48436,16.45197 c 1.91642,9.04858 4.1521,16.87393 4.96822,17.38966 0.8161,0.51572 5.01954,2.12348 9.34097,3.5728 4.32143,1.44931 14.44197,5.84989 22.49008,9.77907 l 14.63293,7.14396 14.36209,-8.67617 c 7.89914,-4.77189 14.8294,-8.67616 15.40057,-8.67616 2.36058,0 23.4663,22.73333 22.76346,24.5189 -0.41345,1.05032 -4.62255,8.55385 -9.35358,16.67451 l -8.60187,14.76483 3.2452,7.37802 c 1.78485,4.05791 5.37459,13.89706 7.9772,21.86477 l 4.73202,14.48675 18.67594,4.83312 18.67596,4.8331 0.392,17.10871 0.39198,17.10872 -17.53484,3.91892 c -9.64417,2.1554 -19.03153,5.04826 -20.86079,6.42858 -1.83208,1.38242 -5.73761,8.28444 -8.69535,15.36678 -2.95319,7.07143 -6.57377,15.30152 -8.04576,18.28909 l -2.67634,5.43195 4.64625,8.13948 c 2.55543,4.47671 6.34068,11.4747 8.41163,15.55107 l 3.7654,7.41157 -9.79667,10.94606 c -5.38817,6.02032 -10.5942,11.2521 -11.56896,11.62614 -0.97477,0.37406 -8.70068,-3.31912 -17.1687,-8.20703 -14.64212,-8.45174 -15.61001,-8.79784 -19.7567,-7.0645 -2.39817,1.00246 -12.1682,4.79183 -21.71117,8.42083 l -17.35088,6.5982 -4.82599,18.57143 -4.82597,18.57143 -16.7132,0.40214 c -16.36394,0.39374 -16.73017,0.33404 -17.52517,-2.85714 z M 411.38358,566.812 c 20.24064,-5.94523 36.23044,-19.17575 45.25672,-37.44701 L 462,518.51572 v -18.64087 c 0,-18.31167 -0.0862,-18.81748 -4.87922,-28.64088 -8.8833,-18.2064 -27.71088,-33.22906 -47.30336,-37.7437 -10.88854,-2.50902 -27.65307,-1.86684 -37.50534,1.43667 -11.48885,3.85226 -17.03931,7.296 -27.07361,16.79763 -16.50238,15.62635 -21.75637,28.78515 -20.84001,52.19449 0.50687,12.94844 1.07683,15.50173 5.45964,24.45777 5.86731,11.98954 21.50047,28.33054 31.98038,33.4284 15.17027,7.37943 34.7359,9.35664 49.5451,5.00677 z"
         id="path876"
         inkscape:connector-curvature="0"
         transform="matrix(0.26458333,0,0,0.26458333,-5.6696429,-46.113095)" />
    </g>
    <path
       style="opacity:1;fill:#454955;fill-opacity:1;stroke-width:1.42857146"
       d="m 369.22611,645.87683 c -2.19281,-9.625 -4.27091,-18.50479 -4.618,-19.73287 -0.35399,-1.25248 -3.60547,-2.99653 -7.40531,-3.97212 -3.72582,-0.95658 -12.49461,-4.61214 -19.48618,-8.12346 l -12.71196,-6.38421 -16.4904,10.05243 -16.49039,10.05243 -11.86907,-11.80742 c -6.528,-6.49408 -11.86908,-12.34637 -11.86908,-13.0051 0,-0.65871 4.17857,-8.28011 9.28571,-16.93643 5.10715,-8.65631 9.28572,-16.37422 9.28572,-17.1509 0,-0.77668 -1.62702,-4.18845 -3.6156,-7.58171 -1.98858,-3.39324 -5.45187,-11.222 -7.69621,-17.39724 l -4.08061,-11.22769 -20.87522,-5.57757 -20.87522,-5.57757 v -17.49176 -17.49177 l 20.03659,-4.68489 c 18.73928,-4.38156 20.08861,-4.9228 20.84003,-8.35924 1.76829,-8.08692 8.06137,-25.53898 11.85113,-32.86572 l 4.01531,-7.76281 -10.35759,-17.16313 -10.35758,-17.16313 11.53106,-12.57406 c 6.34208,-6.91573 11.7685,-12.57406 12.05871,-12.57406 0.29021,0 8.23267,4.55945 17.64991,10.1321 l 17.12226,10.13211 11.01937,-5.6679 c 6.06066,-3.11734 15.51937,-7.12114 21.01937,-8.89734 5.5,-1.77619 10.23958,-3.43538 10.5324,-3.68708 0.29282,-0.2517 2.60873,-8.36092 5.14646,-18.02048 l 4.61407,-17.56284 h 17.70774 17.70776 l 4.17046,18.0465 4.17044,18.04651 7.97534,2.22396 c 9.26453,2.58346 20.64522,7.60043 30.97753,13.6559 l 7.2879,4.27124 15.45146,-9.28097 15.45146,-9.28096 11.9035,11.84165 c 6.54691,6.51292 11.90348,12.2702 11.90348,12.79396 0,0.52377 -4.25184,8.13905 -9.44853,16.92285 l -9.44853,15.97054 4.37483,9.53727 c 2.40615,5.24549 5.93626,14.97526 7.84467,21.62169 1.90843,6.64644 4.03088,12.23446 4.71658,12.41783 0.68568,0.18336 9.1217,2.38146 18.7467,4.88464 l 17.5,4.55126 v 17.58356 17.58355 l -19.91089,4.64673 -19.91089,4.64673 -3.77622,10.80063 c -2.07692,5.94036 -5.97416,14.54314 -8.66053,19.11731 -2.68639,4.57418 -4.88336,8.75275 -4.88217,9.28572 0.001,0.53297 4.07712,7.75106 9.05764,16.04018 l 9.05547,15.07115 -11.70553,12.69274 -11.70553,12.69274 -16.55123,-9.61117 -16.55121,-9.61117 -9.79099,4.93066 c -5.38504,2.71187 -14.58472,6.36628 -20.44374,8.12093 -5.85901,1.75464 -10.87451,3.3746 -11.14556,3.5999 -0.43238,0.35942 -6.66184,22.98275 -9.31492,33.8288 l -0.96099,3.92857 h -17.50913 -17.50913 z m 40.35522,-78.9854 c 52.64436,-12.40916 71.5078,-77.36817 33.31792,-114.73505 -27.82995,-27.23019 -72.84963,-26.76213 -99.30025,1.03241 -9.54798,10.0331 -14.52986,18.46435 -17.38185,29.41675 -13.06911,50.18886 32.51094,96.27284 83.36418,84.28589 z"
       id="path24"
       inkscape:connector-curvature="0"
       transform="scale(0.26458333)" />
    <path
       style="opacity:1;fill:#ff9000;fill-opacity:1;stroke-width:1.42857146"
       d="m 369.21521,645.16255 c -2.26,-10.01786 -4.671,-18.95163 -5.35778,-19.85283 -0.68678,-0.9012 -4.55439,-2.71977 -8.59467,-4.04129 -4.04028,-1.32151 -12.45496,-4.9715 -18.69928,-8.11107 L 325.21018,607.44902 308.60509,617.5123 292,627.57557 281.54287,617.26192 c -5.75142,-5.67252 -11.01888,-11.32893 -11.70547,-12.5698 -0.89763,-1.62232 1.40723,-7.00667 8.20424,-19.16579 l 9.45257,-16.90964 -2.61117,-4.40564 c -1.43615,-2.4231 -5.03507,-10.51279 -7.99761,-17.97708 l -5.38644,-13.57142 -20.82092,-5.60313 -20.82092,-5.60313 v -17.36022 -17.36021 l 19.63633,-4.8938 19.63633,-4.8938 5.13222,-15 c 2.82272,-8.25 6.75399,-18.17113 8.73615,-22.04695 l 3.60392,-7.04696 -10.35853,-17.16469 -10.35853,-17.1647 11.48661,-12.5256 c 6.31763,-6.88907 11.87207,-12.32918 12.34319,-12.08911 0.47113,0.24006 8.36007,4.75323 17.531,10.02927 l 16.6744,9.59279 13.3256,-6.35609 c 7.32907,-3.49585 17.02443,-7.50614 21.54523,-8.91175 9.17889,-2.8539 7.94108,-0.66033 14.24533,-25.24478 l 3.20542,-12.5 h 18.23623 c 13.64343,0 18.23303,0.44973 18.22345,1.78571 -0.007,0.98215 1.63625,8.90296 3.65172,17.60181 l 3.6645,15.8161 10.27686,3.30755 c 5.65227,1.81915 16.16684,6.36913 23.36571,10.11105 l 13.08884,6.8035 15.41907,-9.26152 15.41908,-9.26151 12.01062,12.22853 12.01065,12.22853 -3.1941,5.39155 c -1.75676,2.96536 -6.10032,10.38332 -9.65236,16.48436 l -6.45826,11.0928 3.89763,9.17077 c 2.1437,5.04392 5.70862,14.83788 7.92204,21.76434 l 4.0244,12.59357 18.71176,4.83787 18.71177,4.83786 v 17.52247 17.52247 l -16.78571,3.8098 c -25.19126,5.71759 -23.0047,4.36766 -27.6318,17.05923 -2.24412,6.15536 -6.02537,14.63817 -8.40279,18.85072 -2.3774,4.21254 -4.32255,8.18545 -4.32255,8.8287 0,0.64325 3.898,7.76254 8.66222,15.82065 4.76423,8.05812 8.46066,15.16287 8.21429,15.78836 -0.24637,0.62549 -5.39596,6.44323 -11.44351,12.92833 l -10.99559,11.79107 -16.40051,-9.52366 -16.40053,-9.52367 -6.17533,3.1864 c -3.39643,1.75253 -12.88893,5.56326 -21.09443,8.4683 l -14.9191,5.2819 -4.92944,18.7566 -4.92943,18.7566 h -17.34647 -17.34646 z m 40.31217,-78.2252 c 24.24354,-5.71592 44.76502,-25.16669 51.05044,-48.38688 3.69107,-13.63592 2.56156,-33.11802 -2.56586,-44.25655 -5.7403,-12.4699 -13.11923,-21.6734 -22.94191,-28.61468 -29.66937,-20.96611 -67.95916,-17.4408 -92.21643,8.49029 -14.70139,15.71583 -19.49349,28.82856 -18.3719,50.27133 0.6319,12.08064 1.27122,14.53059 6.59597,25.27639 14.65977,29.58462 46.587,44.73237 78.44969,37.2201 z"
       id="path835"
       inkscape:connector-curvature="0"
       transform="scale(0.26458333)" />
  </g>
</svg>
